<?xml version="1.0" standalone="no"?>
<!DOCTYPE svg PUBLIC "-//W3C//DTD SVG 20010904//EN" "http://www.w3.org/TR/2001/REC-SVG-20010904/DTD/svg10.dtd">
<svg version="1.0" xmlns="http://www.w3.org/2000/svg" width="400" height="77.333" viewBox="0 0 300 58">
    <g fill="#FFF">
        <path
            d="M22.7 2c-6.5 1.2-7 2.4-7.8 17.2-1.7 29-1.6 30.6 1.4 33.6 2.6 2.6 3.2 2.7 12.6 2.7 8.6 0 10.3-.3 12.8-2.1l2.9-2.2 2.1 2.4c2.4 2.7 7.1 3.1 13.5 1.4 6.6-1.9 8.2-7.3 5.7-19-.6-2.8-.9-5.3-.7-5.5.1-.2 1.5-.6 3.1-1l2.7-.7v5.8c0 7.8 1.5 12.9 4.9 16.4 5 5.3 13 6.6 18.9 3 1.7-1.1 3.2-1.5 3.2-1 0 2.2 5 3 9.2 1.5 3.7-1.2 4.4-1.2 5.8 0 2 1.8 14 2.1 15.7.4.8-.8 1.7-.8 3.3.1 2.8 1.5 9.6.8 13.8-1.3 2.9-1.4 3.2-1.4 4.9.5 1.6 1.8 2.6 2 8.1 1.4 11.5-1 14.8-4.6 12.2-13.5-.8-2.9-.6-3.6 1.3-5.1l2.2-1.8 1 8.3c1.6 12.5 4.7 14.9 14.2 10.9l5.1-2.2 1.9 2c1.6 1.9 2.6 2 11.3 1.5 5.2-.3 11.3-1.2 13.5-2 3.7-1.3 4.3-1.3 6.4.4 2.1 1.7 3.7 1.9 16.5 1.5 7.7-.3 14.6-.5 15.3-.5.6-.1 1.8-.7 2.6-1.5 1.2-1.3 2-1.3 5.8 0 5.5 1.9 9.9 1.1 13.8-2.5 3.6-3.3 3.7-4.4 1.6-16.1-.8-4.7-1.5-11-1.5-14-.1-7.3-2.8-14.8-6.3-17.4-3.3-2.4-8.1-2.5-12.7-.1-2.9 1.5-3.8 1.5-7.2.4-3.1-1-4.6-1-7.1-.1-2.5 1-3.4.9-4.7-.3-.9-.8-2.7-1.5-4.1-1.5-3.6 0-12 3.2-12.9 5-.6 1.3-1.9 14-2 20.2 0 1.2-.8 1.8-2.3 1.8-2.1 0-2.3-.8-4-11.2-1.1-6.1-2.4-11.9-3-13-2.8-4.3-13.3-4.9-18.3-.9-2.4 1.9-2.9 2-4.9.7-1.2-.8-4-2-6.2-2.6-3.4-1.1-4.6-1-7.3.3-2.9 1.5-3.4 1.5-5.5.1C170.9.7 168.8.9 159 3.8c-7.4 2.1-9 3.7-9 8.4 0 2.1-.4 3.8-1 3.8-.5 0-1-1.1-1-2.5 0-7-6.8-11.6-14-9.5-2.5.7-3.8.6-4.9-.4-2.8-2.3-4.9-2.5-10.3-1.1-2.9.7-5.7 1.1-6.2.7-3.2-1.9-9.3-2-13.6 0-3.5 1.5-6.4 2-12.7 1.8-4.9 0-8.4.3-8.8 1-.4.7-1.8.1-3.8-1.6-2.6-2.2-3.8-2.5-7.6-2.1-2.4.3-5.6.1-7-.4-2-.7-4.4-.4-9.6 1.4l-7 2.3-.3 4.7c-.4 5.9-2.8 6.5-3.8.9-1-5.4-2.2-7.2-5.9-8.8C28.8.9 28.4.9 22.7 2zm7.7 3.6c.9.3 1.6 1.7 1.6 3.1 0 1.3-.4 2.1-1 1.8-.6-.4-1 .8-1 2.9 0 2.9.4 3.6 2 3.6 1.1 0 2 .5 2 1.1 0 .7 1.1.8 3 .4s3.6-.2 4.5.5c1.6 1.4 2 5 .6 5-.5 0-.8 1-.8 2.2 0 1.3-.3 5.7-.7 9.8-.9 9.9-2 11-11.9 11.7-9 .7-10.3 2.3-1.8 2.3 8.4 0 11.6-1.4 13.5-5.8l1.5-3.7v4.3c.1 3.7-.2 4.4-2.6 5.4-4.5 1.8-14.8 2.2-18.4.7l-3.2-1.4.8-16.5c.4-9.1.6-18.3.6-20.5-.2-5.9.3-6.3 8.6-7.4.6 0 1.8.2 2.7.5zM59 7c1 1.9 1.3 1.9 3.3.5 2.6-1.8 7.3-2 8.4-.3 1 1.7 3.2 9.7 3.3 12.2 0 1.3-.3 1.6-1.2.9-1.4-1.1-7.1.8-8.4 2.8-.7 1.2-.3 1.1 6.4-.7 1.3-.4 2.2-.2 2.2.4 0 1-5.9 3.2-8.7 3.2-1.9 0-3.2-3.2-2.6-6.3.5-2.4.2-2.7-2-2.7-3.3 0-4.6 1.9-4 5.3.4 2 .8 2.5 1.4 1.6 1.2-2 1.8-.8 3.5 7.1.9 4.5 1.1 7.5.5 7.9-.5.3-1.1 2-1.3 3.6-.2 2.4-1.2 3.4-4.3 4.9-2.8 1.4-3.5 2.1-2.3 2.4 1 .2 3-.3 4.5-1 2.2-1 2.9-2.2 3.3-5.3.6-4.9 1.8-3.5 1.6 2-.1 3.1-.6 4.2-2.6 5.3-2.9 1.5-9.9.9-11.1-.9-.4-.7-1-6.9-1.4-13.8-.4-6.9-1-15.1-1.4-18.2-1-7.8-.2-9.5 5.6-11.2 6.4-2 6.1-2 7.3.3zm50.8-.4c1.5.4 1.6 4.1.2 4.6-.6.2-1.3 6.2-1.6 14.8-.5 17.1-.8 18.7-3.7 21.1-1.2 1-1.7 1.8-1.2 1.9 1.8 0 5.5-3 5.5-4.5 0-.8.4-1.6.8-1.9.5-.3.6 1.2.3 3.2-.5 3.1-1.2 3.9-4.1 4.8-4.4 1.5-6.4.2-5.6-3.6.5-2.7-.8-5-3-5-.6 0-2.9 1.4-5 3.1-3.2 2.6-4.5 3-7.6 2.6-4.8-.6-5 1-.3 1.9 2.7.5 4.4 0 8.1-2.1 5.7-3.3 6.6-2.7 1.9 1.4-2.4 2.1-4.6 3.1-6.7 3.1-4.5 0-9.4-3.7-10.7-8.1-1.6-5.2-1.4-29.9.2-32.1.8-.9 3.5-1.9 7-2.3 4.8-.6 5.8-.5 6.3 1 .4.9.2 2.1-.5 2.8-1.2 1.2-1.6 10.1-.3 9.3.4-.2.6 1.2.3 3.2l-.5 3.7-.7-3c-.6-2.6-.7-2.5-.7 1.5-.1 3 .5 5.2 1.7 6.7 3.7 4.4 4.7 3 5.6-7.8C96.9 8.9 96.9 9 100.3 7c2.9-1.8 4.9-1.9 9.5-.4zm16.7 1.3c.7 1.6 1.5 2 3 1.6C141.8 5.7 143.2 7.2 145 26c.5 5.2 1.2 11.5 1.6 14 .4 2.5.7 5.4.8 6.5.1 2.4-4.3 4.7-9.6 5.1-5.8.4-6.5-1.5-7.3-19.4-.7-13.7-.9-15.2-2.6-15.2-1 0-2.1.6-2.6 1.2-.4.7-.6 7.7-.4 15.5l.3 14.3h-3.5c-2 0-3.9.4-4.2 1-.4.6.8 1 2.9 1 2.6 0 4-.7 5.5-2.8l2.1-2.7-.2 3.5c-.3 4-2 4.6-9.5 3.5l-4.4-.6.2-18c.3-24.5.4-25 5.4-26.5 4.9-1.5 5.7-1.3 7 1.5zm45.9-1.6c2.1 1.5 1.4 6.2-.7 5.1-.7-.3-.5 0 .3.8.9.7 2.2 2.8 3 4.7 1.2 3 1.2 3.5-.5 4.7-1 .7-3.3 1.3-5.1 1.2-3-.1-3.4-.4-3.4-2.8 0-1.5-.7-3.3-1.5-4-.9-.7-1.4-1.9-1.1-2.7.3-.8.2-1.2-.3-.8-.5.3-1.2 2.3-1.6 4.6-.6 3.4-.3 4.4 1.4 6 1.1 1 3.2 1.9 4.6 1.9 1.8 0 2.8.7 3.5 2.6 1.5 4 1.2 5.1-1.6 5.8-3.6.9-4.1 0-1.3-2.3 2.7-2.3 1.4-2.7-2.6-.9-3.2 1.4-4 4.6-2.7 10 1.2 4.5.3 6.8-2.5 6.8-.8 0-2.5 1.2-3.8 2.6-3.4 3.6-3.9 1.9-2.6-9.2.5-4.9.7-9.1.5-9.3-.2-.2-1.3.4-2.4 1.4-1.7 1.6-2 1.6-2.6.2-1.1-3.1 0-7.2 2-7.2 1.8 0 1.9-.7 1.7-6.2-.2-5.6 0-6.5 2.3-8.7 1.5-1.3 5-3 7.9-3.9 6.6-2 6.9-2 9.1-.4zm14.3-.2c1.5.5 3.1 1.5 3.4 2.1 1.2 1.9.2 7.7-1.7 9.5-1.9 2-2 2.4.3-4.8.4-1.6.2-2-.8-1.7-.8.2-1.5 1.4-1.7 2.5-.2 1.6-1.2 2.2-4 2.6-4.9.6-5.7-.3-4.2-5 2.1-6.5 3.4-7.3 8.7-5.2zm24.4.6c1.1 1.3 1.1 1.7.2 2-.7.3-1.3 2.1-1.3 4.1 0 4.8 1 8.3 2.1 7.6 1-.6 1.6.7 2.3 4.9.3 1.6.1 2.5-.5 2.2-.5-.4-.9-1.5-.9-2.5s-.3-2.1-.7-2.3c-.5-.3-.6 1.5-.4 3.9.1 2.4.7 4.4 1.3 4.4.5 0 .6-.5.3-1-.3-.6-.2-1 .2-1 .5 0 1.3 1 1.8 2.2.8 1.8 1.9 2.2 6.5 2.2l5.5.1.2 5c.1 3.1-.1 4.1-.5 2.7-.9-2.9-2.7-2.9-2.7.1s-3.2 4.3-14 5.8c-10.3 1.4-13.3 2.9-5.8 2.9 5.7 0 18.2-2.6 19.8-4.1 1.3-1.3 2.5-1.1 2.5.5 0 2.8-18.4 6.5-25.5 5.2l-3.5-.7.2-21.7.3-21.6 2.5-1.3c3.5-1.8 8.5-1.6 10.1.4zm61.1-.5c3 2.4 6.2 14.8 3.7 14.8-.5 0-.8-.4-.4-.9.3-.5 0-1.3-.6-1.7-.8-.5-1 .3-.6 2.7.4 1.9 1.1 6.4 1.8 10.1.7 4.3 1.6 6.8 2.4 6.8 1.3 0 2.5 3 2.5 6.6 0 3.4-4.5 5.7-9.7 5.1-2.5-.2-5-1-5.5-1.5-.9-.9-1.9-17.7-1.8-30 0-.7-1.2-1.2-2.9-1.2-3.7 0-4.1 1.9-3.4 17.7.6 12.8.6 12.9-3.6 12.3-2.3-.3-6.2 1-5.6 1.9.5.9 5.3.6 8.3-.4.7-.3 1.9-1.9 2.7-3.7l1.4-3.3V45c.1 5.7-1 6.4-8.9 6.1-6.4-.2-6.4-.4-7-17.7l-.5-15.6-2.4 2.1c-2.1 1.9-2.4 2.8-2.2 9.3.6 18.6.6 18.8-3.4 18.8-1.3 0-2.7.4-3 1-1.2 1.9 5.1 1 7.3-1.1 1.9-1.7 2.3-1.8 2.8-.4 1.4 3.7-3.1 5.4-10.5 3.9l-3.1-.7.4-11.1c.2-6.1.5-15.5.5-20.8l.1-9.7 3.1-1.6c4.1-2.2 7.3-1.6 7.7 1.2.4 2.8-.1 2.7 4.7.3 2.2-1.1 4.6-2 5.5-2 2.1 0 4 2 4 4.2s1.6 2.4 2.4.3c.5-1.3 9.8-6.5 11.7-6.5.3 0 1.2.6 2.1 1.2zM194 16.7c0 4.3-.1 4.6-1.6 3.1-1.2-1.1-1.4-2.5-.9-4.7 1-4.7 2.5-3.7 2.5 1.6zm-3.2 7.8c.2 1.6.7 3.4 1.1 4 1.2 1.6 3.4 16.2 2.7 18-.8 2.2-8.1 5.3-11.1 4.8-2.2-.5-2.4-1-2.9-9.2-1.6-23.3-2.2-21.1 5.4-20.8 4.2.2 4.5.4 4.8 3.2zM176 28c0 1.6-.4 3.2-1 3.5-.6.4-1-1-1-3.5s.4-3.9 1-3.5c.6.3 1 1.9 1 3.5zm67.9 7.4c0 2.7-.2 4.6-.6 4.2-.4-.3-.8-1.2-.9-1.9-1.2-9.3-1.3-11.5-.7-12.1 1-1 2 3.6 2.2 9.8zm-116.6.6c.3 3 .3 4.9-.2 4.2-.8-1.3-1.5-11-.8-10.2.3.3.7 3 1 6zm39.1 7.6c.4 3.6.3 5.4-.6 6.1-2 1.6-8.8 2.6-8.8 1.3 0-.5.8-1 1.8-1s2.9-1.1 4.1-2.4c2-2.1 2.2-3.1 1.7-7.8-.4-3.3-.3-4.5.3-3.3.4 1.1 1.1 4.3 1.5 7.1z" />
        <path
            d="M29.1 28.3c-.6.6-1.1 2.9-1.1 5.1 0 2.8.3 3.6.9 2.7.7-1.1 1-.9 1.6.8 1.1 3.7 2.3 2.3 2.7-3.4.2-4.4 0-5.5-1.4-5.8-.9-.3-2.1 0-2.7.6zM52.8 11.7c-1 .2-1.8 1.1-1.8 2 0 .8.5 1.2 1.3.9.6-.3 2-.9 3-1.2.9-.4 1.7-1 1.7-1.5 0-.9-1.3-1-4.2-.2zM80.3 16.5c-.9 2.4 0 2.5 2.7.5l2.5-2h-2.3c-1.2 0-2.5.7-2.9 1.5zM120.7 11.7c-.4.3-.7 1.2-.7 1.9 0 1.1.5 1.1 2.5.2 1.4-.6 2.5-1.5 2.5-2 0-1-3.4-1.1-4.3-.1zM142.3 26.3c.4 5.6 1.2 11.5 1.6 13.2l.9 3 .1-3c.1-5.6-1.8-21.8-2.6-22.6-.5-.5-.5 3.7 0 9.4zM143 45.5c-.7.8-2.2 1.5-3.4 1.5-1.2 0-3.1.7-4.2 1.5-1.8 1.4-1.8 1.4.4 1.5 3.3 0 9.2-2.9 9.2-4.6 0-1.8-.5-1.8-2 .1zM249.1 13.6c-1.9.8-3.2 1.7-2.9 2 .9.8 7.8-.7 7.8-1.7 0-1.6-1.6-1.7-4.9-.3zM278.1 41.7c-.2 2.3-3.3 4.3-6.7 4.3-1.9 0-3.4.4-3.4 1 0 .5 1.5 1 3.4 1 4.2 0 8-2.9 7.3-5.5-.2-1.1-.5-1.5-.6-.8zM188.8 45.4c-3.9 2.2-5.7 4.6-3.5 4.6 1.5 0 8.4-5.6 7.7-6.2-.3-.2-2.2.5-4.2 1.6z" />
    </g>
</svg>
